<svg id="icons" enable-background="new 0 0 64 64" height="512" viewBox="0 0 64 64" width="512" xmlns="http://www.w3.org/2000/svg"><path d="m57.5 11.02v19h-4v-19c0-1.109.9-2 2-2s2 .89 2 2z" fill="#5c9eff"/><path d="m53.5 30.02h4 2c1.66 0 3 1.341 3 3v1.98h-14v-1.98c0-1.659 1.34-3 3-3z" fill="#94c1ff"/><path d="m48.5 35h14v8.03h-14z" fill="#d7e9ff"/><path d="m48.5 43.03h14v2c0 .55-.45 1-1 1h-3-3-3-3c-.55 0-1-.45-1-1z" fill="#fff"/><path d="m4.51 60h36.99v.04 2.96h-40v-59h2.97.04z" fill="#d7e9ff"/><path d="m44.5 7h-6v-6z" fill="#fff"/><path d="m44.5 7v53h-3-36.99v-56-3h33.99v6z" fill="#d7e9ff"/><g fill="#116fff"><path d="m44.5 60.998h-39.996c-.553 0-1-.447-1-1v-58.998c0-.552.447-1 1-1h33.996c.266 0 .52.105.707.293l6 6c.188.188.293.442.293.707v52.998c0 .553-.447 1-1 1zm-38.996-2h37.996v-51.583l-5.414-5.415h-32.582z"/><path d="m41.498 64h-39.996c-.553 0-1-.447-1-1v-58.998c0-.552.447-1 1-1h2.965c.553 0 1 .448 1 1s-.447 1-1 1h-1.965v56.998h37.996v-1.965c0-.553.447-1 1-1s1 .447 1 1v2.965c0 .553-.447 1-1 1z"/><path d="m38.5 8c-.553 0-1-.448-1-1v-6c0-.552.447-1 1-1s1 .448 1 1v6c0 .553-.447 1-1 1z"/><path d="m44.5 8h-6c-.553 0-1-.448-1-1s.447-1 1-1h6c.553 0 1 .448 1 1s-.447 1-1 1z"/><path d="m13.502 20c-.553 0-1-.448-1-1 0-2.757 2.243-5 5-5 .553 0 1 .448 1 1s-.447 1-1 1c-1.654 0-3 1.346-3 3 0 .552-.447 1-1 1z"/><path d="m17.502 36.004c-2.757 0-5-2.243-5-5.001 0-.552.447-1 1-1s1 .448 1 1c0 1.655 1.346 3.001 3 3.001.553 0 1 .447 1 1s-.447 1-1 1z"/><path d="m13.502 28c-.553 0-1-.448-1-1 0-.551-.448-1-1-1-.553 0-1-.448-1-1s.447-1 1-1c1.654 0 3 1.346 3 3 0 .553-.447 1-1 1z"/><path d="m11.502 26c-.553 0-1-.448-1-1s.447-1 1-1c.552 0 1-.449 1-1 0-.552.447-1 1-1s1 .448 1 1c0 1.655-1.346 3-3 3z"/><path d="m13.502 24c-.553 0-1-.448-1-1v-4c0-.552.447-1 1-1s1 .448 1 1v4c0 .553-.447 1-1 1z"/><path d="m13.502 32.002c-.553 0-1-.448-1-1v-4.002c0-.552.447-1 1-1s1 .448 1 1v4.002c0 .553-.447 1-1 1z"/><path d="m35.502 20c-.553 0-1-.448-1-1 0-1.654-1.346-3-3-3-.553 0-1-.448-1-1s.447-1 1-1c2.757 0 5 2.243 5 5 0 .552-.447 1-1 1z"/><path d="m31.502 36.004c-.553 0-1-.447-1-1s.447-1 1-1c1.654 0 3-1.347 3-3.001 0-.552.447-1 1-1s1 .448 1 1c0 2.758-2.243 5.001-5 5.001z"/><path d="m35.502 28c-.553 0-1-.448-1-1 0-1.654 1.346-3 3-3 .553 0 1 .448 1 1s-.447 1-1 1c-.552 0-1 .449-1 1 0 .553-.447 1-1 1z"/><path d="m37.502 26c-1.654 0-3-1.346-3-3 0-.552.447-1 1-1s1 .448 1 1c0 .551.448 1 1 1 .553 0 1 .448 1 1s-.447 1-1 1z"/><path d="m35.502 24c-.553 0-1-.448-1-1v-4c0-.552.447-1 1-1s1 .448 1 1v4c0 .553-.447 1-1 1z"/><path d="m35.502 32.002c-.553 0-1-.448-1-1v-4.002c0-.552.447-1 1-1s1 .448 1 1v4.002c0 .553-.447 1-1 1z"/><path d="m20.528 26c-.553 0-1.005-.448-1.005-1s.442-1 .994-1h.011c.552 0 1 .448 1 1s-.448 1-1 1z"/><path d="m24.532 26c-.553 0-1.005-.448-1.005-1s.442-1 .994-1h.011c.552 0 1 .448 1 1s-.448 1-1 1z"/><path d="m28.534 26c-.553 0-1.005-.448-1.005-1s.442-1 .994-1h.011c.552 0 1 .448 1 1s-.448 1-1 1z"/><path d="m19.5 45.004c-.553 0-1-.447-1-1 0-.552-.447-1-.998-1-.552 0-1 .448-1 1 0 .553-.447 1-1 1s-1-.447-1-1c0-1.654 1.346-3 3-3 1.653 0 2.998 1.346 2.998 3 0 .553-.447 1-1 1z"/><path d="m17.502 51.004c-1.654 0-3-1.346-3-3 0-.553.447-1 1-1s1 .447 1 1c0 .552.448 1 1 1s1-.448 1-1c0-.553.447-1 1-1s1 .447 1 1c0 1.654-1.346 3-3 3z"/><path d="m15.502 49.004c-.553 0-1-.447-1-1v-4c0-.553.447-1 1-1s1 .447 1 1v4c0 .553-.447 1-1 1z"/><path d="m33.5 45.004c-.553 0-1-.447-1-1 0-.552-.447-1-.998-1-.552 0-1 .448-1 1 0 .553-.447 1-1 1s-1-.447-1-1c0-1.654 1.346-3 3-3 1.653 0 2.998 1.346 2.998 3 0 .553-.447 1-1 1z"/><path d="m31.496 51.004c-1.654 0-3-1.346-3-3 0-.553.447-1 1-1s1 .447 1 1c0 .552.448 1 1 1s1-.448 1-1c0-.553.447-1 1-1s1 .447 1 1c0 1.654-1.346 3-3 3z"/><path d="m33.496 49.004c-.553 0-1-.447-1-1 0-.354-.599-.683-1.444-1.105-1.076-.539-2.55-1.277-2.55-2.895 0-.553.447-1 1-1s1 .447 1 1c0 .354.599.683 1.444 1.105 1.076.539 2.55 1.277 2.55 2.895 0 .553-.447 1-1 1z"/><path d="m26.493 45.004c-.553 0-1-.447-1-1 0-.552-.447-1-.998-1-.552 0-1 .448-1 1 0 .553-.447 1-1 1s-1-.447-1-1c0-1.654 1.346-3 3-3 1.653 0 2.998 1.346 2.998 3 0 .553-.447 1-1 1z"/><path d="m24.489 51.004c-1.654 0-3-1.346-3-3 0-.553.447-1 1-1s1 .447 1 1c0 .552.448 1 1 1s1-.448 1-1c0-.553.447-1 1-1s1 .447 1 1c0 1.654-1.345 3-3 3z"/><path d="m26.489 49.004c-.553 0-1-.447-1-1 0-.354-.599-.683-1.444-1.105-1.076-.539-2.55-1.277-2.55-2.895 0-.553.447-1 1-1s1 .447 1 1c0 .354.599.683 1.444 1.105 1.076.539 2.55 1.277 2.55 2.895 0 .553-.447 1-1 1z"/><path d="m49.496 47.025c-1.103 0-2-.897-2-2 0-.553.447-1 1-1s1 .447 1 1v.002c.553 0 1 .446 1 .999 0 .552-.447.999-1 .999z"/><path d="m61.498 47.025c-.553 0-1-.447-1-1s.447-1 1-1c0-.553.447-1 1-1s1 .447 1 1c0 1.103-.897 2-2 2z"/><path d="m61.498 47.025h-12.002c-.553 0-1-.447-1-1s.447-1 1-1h12.002c.553 0 1 .447 1 1s-.447 1-1 1z"/><path d="m62.498 46.025c-.553 0-1-.447-1-1v-12.005c0-.552.447-1 1-1s1 .448 1 1v12.006c0 .552-.447.999-1 .999z"/><path d="m48.496 46.025c-.553 0-1-.447-1-1v-12.005c0-.552.447-1 1-1s1 .448 1 1v12.006c0 .552-.447.999-1 .999z"/><path d="m48.496 34.02c-.553 0-1-.447-1-1 0-2.207 1.795-4.002 4.002-4.002.553 0 1 .448 1 1s-.447 1-1 1c-1.104 0-2.002.898-2.002 2.002 0 .552-.447 1-1 1z"/><path d="m62.498 34.02c-.553 0-1-.447-1-1 0-1.103-.897-2-2-2-.553 0-1-.448-1-1s.447-1 1-1c2.206 0 4 1.794 4 4 0 .552-.447 1-1 1z"/><path d="m59.498 31.017h-8c-.553 0-1-.448-1-1s.447-1 1-1h8c.553 0 1 .448 1 1s-.447 1-1 1z"/><path d="m62.498 36.004h-14.002c-.553 0-1-.447-1-1s.447-1 1-1h14.002c.553 0 1 .447 1 1s-.447 1-1 1z"/><path d="m53.498 31.016c-.553 0-1-.448-1-1v-18.999c0-.552.447-1 1-1s1 .448 1 1v18.999c0 .552-.447 1-1 1z"/><path d="m57.498 31.016c-.553 0-1-.448-1-1v-18.999c0-.552.447-1 1-1s1 .448 1 1v18.999c0 .552-.447 1-1 1z"/><path d="m57.498 12.016c-.553 0-1-.448-1-1 0-.551-.448-1-1-1s-1 .449-1 1c0 .552-.447 1-1 1s-1-.448-1-1c0-1.654 1.346-3 3-3s3 1.346 3 3c0 .552-.447 1-1 1z"/><path d="m62.498 44.025h-14.002c-.553 0-1-.447-1-1s.447-1 1-1h14.002c.553 0 1 .447 1 1s-.447 1-1 1z"/><path d="m61.5 52.023c-.553 0-1-.447-1-1v-4.998c0-.553.447-1 1-1s1 .447 1 1v4.998c0 .553-.447 1-1 1z"/><path d="m58.5 50.021c-.553 0-1-.447-1-1v-2.996c0-.553.447-1 1-1s1 .447 1 1v2.996c0 .553-.447 1-1 1z"/><path d="m55.5 56.027c-.553 0-1-.447-1-1v-9.002c0-.553.447-1 1-1s1 .447 1 1v9.002c0 .553-.447 1-1 1z"/><path d="m52.5 49.02c-.553 0-1-.447-1-1v-1.994c0-.553.447-1 1-1s1 .447 1 1v1.994c0 .552-.447 1-1 1z"/><path d="m49.5 52.023c-.553 0-1-.447-1-1v-4.998c0-.553.447-1 1-1s1 .447 1 1v4.998c0 .553-.447 1-1 1z"/></g></svg>