<svg height="512" viewBox="0 0 256 256" width="512" xmlns="http://www.w3.org/2000/svg"><rect fill="#cecece" height="100.451" rx="5.92" width="104.843" x="75.578" y="22.607"/><path d="m85.578 117.138v-88.611a5.937 5.937 0 0 1 5.92-5.92h-10a5.937 5.937 0 0 0 -5.92 5.92v88.611a5.937 5.937 0 0 0 5.92 5.92h10a5.937 5.937 0 0 1 -5.92-5.92z" fill="#afafaf"/><path d="m170.422 117.138v-88.611a5.937 5.937 0 0 0 -5.92-5.92h10a5.937 5.937 0 0 1 5.92 5.92v88.611a5.937 5.937 0 0 1 -5.92 5.92h-10a5.937 5.937 0 0 0 5.92-5.92z" fill="#e2e2e2"/><path d="m180.422 28.531a5.941 5.941 0 0 0 -5.924-5.924h-93a5.941 5.941 0 0 0 -5.924 5.924v13.623h104.848z" fill="#f8af23"/><path d="m91.5 22.607h-10a5.941 5.941 0 0 0 -5.924 5.924v13.623h10v-13.623a5.941 5.941 0 0 1 5.924-5.924z" fill="#f87023"/><path d="m164.5 22.607h10a5.941 5.941 0 0 1 5.924 5.924v13.623h-10v-13.623a5.941 5.941 0 0 0 -5.924-5.924z" fill="#f8d323"/><circle cx="87.883" cy="32.381" fill="#f46275" r="4.088"/><circle cx="100.411" cy="32.381" fill="#f46275" r="4.088"/><circle cx="112.94" cy="32.381" fill="#f46275" r="4.088"/><rect fill="#63bce7" height="48.045" rx="5" width="68" x="94" y="174.374"/><path d="m135.895 61.612a4.7 4.7 0 0 0 -6.056 2.746l-12.48 33.186a4.7 4.7 0 1 0 8.8 3.31l12.48-33.186a4.7 4.7 0 0 0 -2.744-6.056z" fill="#3f3679"/><path d="m111.3 69.9a4.7 4.7 0 0 0 -6.65 0l-9.379 9.379a4.7 4.7 0 0 0 0 6.65l9.379 9.379a4.7 4.7 0 0 0 6.65-6.65l-6.054-6.054 6.054-6.054a4.7 4.7 0 0 0 0-6.65z" fill="#3f3679"/><path d="m160.727 79.281-9.379-9.381a4.7 4.7 0 1 0 -6.65 6.65l6.054 6.054-6.052 6.056a4.7 4.7 0 0 0 6.65 6.65l9.379-9.379a4.7 4.7 0 0 0 -.002-6.65z" fill="#3f3679"/><rect fill="#63bce7" height="48.045" rx="5" width="68" x="16.756" y="174.374"/><path d="m26.756 217.42v-38.046a5 5 0 0 1 5-5h-10a5 5 0 0 0 -5 5v38.046a5 5 0 0 0 5 5h10a5 5 0 0 1 -5-5z" fill="#6377e7"/><rect fill="#63bce7" height="48.045" rx="5" width="68" x="171.244" y="174.374"/><path d="m229.244 217.42v-38.046a5 5 0 0 0 -5-5h10a5 5 0 0 1 5 5v38.046a5 5 0 0 1 -5 5h-10a5 5 0 0 0 5-5z" fill="#63e2e7"/><g fill="#3f3679"><path d="m87.883 37.968a5.588 5.588 0 1 0 -5.583-5.587 5.594 5.594 0 0 0 5.583 5.587zm0-8.175a2.588 2.588 0 1 1 -2.583 2.588 2.591 2.591 0 0 1 2.583-2.588z"/><path d="m100.411 37.968a5.588 5.588 0 1 0 -5.587-5.587 5.594 5.594 0 0 0 5.587 5.587zm0-8.175a2.588 2.588 0 1 1 -2.587 2.588 2.591 2.591 0 0 1 2.587-2.588z"/><path d="m112.94 37.968a5.588 5.588 0 1 0 -5.588-5.587 5.594 5.594 0 0 0 5.588 5.587zm0-8.175a2.588 2.588 0 1 1 -2.588 2.588 2.591 2.591 0 0 1 2.588-2.588z"/><path d="m148.367 33.881h18.667a1.5 1.5 0 1 0 0-3h-18.667a1.5 1.5 0 0 0 0 3z"/><path d="m105.489 193.686a1.5 1.5 0 0 0 2.121 0l5.333-5.333a1.5 1.5 0 0 0 0-2.121l-5.333-5.332a1.5 1.5 0 1 0 -2.121 2.121l4.272 4.273-4.272 4.272a1.5 1.5 0 0 0 0 2.12z"/><path d="m149.45 191.125h-35.125a1.5 1.5 0 0 0 0 3h35.125a1.5 1.5 0 1 0 0-3z"/><path d="m106.55 200.821h23.775a1.5 1.5 0 0 0 0-3h-23.775a1.5 1.5 0 0 0 0 3z"/><path d="m106.55 207.516h12.65a1.5 1.5 0 0 0 0-3h-12.65a1.5 1.5 0 0 0 0 3z"/><path d="m149.45 211.212h-42.9a1.5 1.5 0 1 0 0 3h42.9a1.5 1.5 0 0 0 0-3z"/><path d="m149.45 197.821h-8.625a1.5 1.5 0 0 0 0 3h8.625a1.5 1.5 0 0 0 0-3z"/><path d="m149.45 204.516h-22.118a1.5 1.5 0 1 0 0 3h22.118a1.5 1.5 0 0 0 0-3z"/><path d="m28.246 193.686a1.5 1.5 0 0 0 2.121 0l5.333-5.333a1.5 1.5 0 0 0 0-2.121l-5.333-5.332a1.5 1.5 0 1 0 -2.121 2.121l4.272 4.273-4.272 4.272a1.5 1.5 0 0 0 0 2.12z"/><path d="m72.207 191.125h-35.125a1.5 1.5 0 1 0 0 3h35.125a1.5 1.5 0 0 0 0-3z"/><path d="m29.306 200.821h23.776a1.5 1.5 0 1 0 0-3h-23.776a1.5 1.5 0 0 0 0 3z"/><path d="m29.306 207.516h12.65a1.5 1.5 0 1 0 0-3h-12.65a1.5 1.5 0 0 0 0 3z"/><path d="m72.207 211.212h-42.9a1.5 1.5 0 0 0 0 3h42.9a1.5 1.5 0 0 0 0-3z"/><path d="m72.207 197.821h-8.625a1.5 1.5 0 0 0 0 3h8.625a1.5 1.5 0 1 0 0-3z"/><path d="m72.207 204.516h-22.119a1.5 1.5 0 1 0 0 3h22.119a1.5 1.5 0 1 0 0-3z"/><path d="m182.732 193.686a1.5 1.5 0 0 0 2.121 0l5.334-5.333a1.5 1.5 0 0 0 0-2.121l-5.334-5.333a1.5 1.5 0 1 0 -2.121 2.121l4.273 4.273-4.273 4.272a1.5 1.5 0 0 0 0 2.121z"/><path d="m190.068 192.625a1.5 1.5 0 0 0 1.5 1.5h35.125a1.5 1.5 0 0 0 0-3h-35.125a1.5 1.5 0 0 0 -1.5 1.5z"/><path d="m183.793 200.821h23.775a1.5 1.5 0 0 0 0-3h-23.775a1.5 1.5 0 0 0 0 3z"/><path d="m183.793 207.516h12.65a1.5 1.5 0 0 0 0-3h-12.65a1.5 1.5 0 0 0 0 3z"/><path d="m183.793 214.212h42.9a1.5 1.5 0 1 0 0-3h-42.9a1.5 1.5 0 1 0 0 3z"/><path d="m226.693 197.821h-8.625a1.5 1.5 0 0 0 0 3h8.625a1.5 1.5 0 0 0 0-3z"/><path d="m226.693 204.516h-22.118a1.5 1.5 0 0 0 0 3h22.118a1.5 1.5 0 0 0 0-3z"/><path d="m27.323 231.893h-18a1.5 1.5 0 1 0 0 3h18a1.5 1.5 0 1 0 0-3z"/><path d="m246.68 231.893h-18a1.5 1.5 0 0 0 0 3h18a1.5 1.5 0 0 0 0-3z"/><path d="m218.479 231.893h-180.958a1.5 1.5 0 0 0 0 3h180.958a1.5 1.5 0 0 0 0-3z"/><path d="m9.32 223.92h237.36a1.5 1.5 0 0 0 0-3h-6.968a6.455 6.455 0 0 0 1.032-3.5v-38.045a6.508 6.508 0 0 0 -6.5-6.5h-27.5v-92.975a6.508 6.508 0 0 0 -6.5-6.5h-18.322v-44.873a7.428 7.428 0 0 0 -7.42-7.42h-93a7.428 7.428 0 0 0 -7.42 7.42v44.873h-18.326a6.508 6.508 0 0 0 -6.5 6.5v92.971h-27.5a6.508 6.508 0 0 0 -6.5 6.5v38.049a6.455 6.455 0 0 0 1.032 3.5h-6.968a1.5 1.5 0 1 0 0 3zm76.937-6.5v-17.52h6.243v17.52a6.455 6.455 0 0 0 1.032 3.5h-8.307a6.455 6.455 0 0 0 1.031-3.5zm12.743 3.5a3.5 3.5 0 0 1 -3.5-3.5v-38.045a3.5 3.5 0 0 1 3.5-3.5h58a3.5 3.5 0 0 1 3.5 3.5v38.045a3.5 3.5 0 0 1 -3.5 3.5zm71.775 0h-8.306a6.455 6.455 0 0 0 1.032-3.5v-17.52h6.243v17.52a6.455 6.455 0 0 0 1.031 3.5zm66.968-41.545v38.045a3.5 3.5 0 0 1 -3.5 3.5h-58a3.5 3.5 0 0 1 -3.5-3.5v-38.045a3.5 3.5 0 0 1 3.5-3.5h58a3.5 3.5 0 0 1 3.5 3.5zm-37.5-102.975a3.5 3.5 0 0 1 3.5 3.5v92.971h-27.5a6.508 6.508 0 0 0 -6.5 6.5v17.529h-6.243v-17.525a6.508 6.508 0 0 0 -6.5-6.5h-27.5v-48.317h45a7.428 7.428 0 0 0 7.42-7.42v-40.738zm-123.164-32.746h101.843v73.484a4.425 4.425 0 0 1 -4.42 4.42h-93a4.425 4.425 0 0 1 -4.42-4.42zm97.421-19.547a4.429 4.429 0 0 1 4.424 4.424v12.123h-101.845v-12.123a4.429 4.429 0 0 1 4.421-4.424zm-122.244 55.793a3.5 3.5 0 0 1 3.5-3.5h18.323v40.734a7.428 7.428 0 0 0 7.42 7.42h45v48.316h-27.499a6.508 6.508 0 0 0 -6.5 6.5v17.53h-6.244v-17.525a6.508 6.508 0 0 0 -6.5-6.5h-27.5zm-34 137.517v-38.042a3.5 3.5 0 0 1 3.5-3.5h58a3.5 3.5 0 0 1 3.5 3.5v38.045a3.5 3.5 0 0 1 -3.5 3.5h-58a3.5 3.5 0 0 1 -3.5-3.5z"/></g></svg>